<?xml version="1.0" standalone="no"?>
<svg viewBox="0 0 200 200" xmlns="http://www.w3.org/2000/svg">
  <path fill="#403FF2" d="M35.1,-57.7C47.2,-53.7,59.9,-47.8,63.3,-37.9C66.7,-28,60.8,-14,61.5,0.4C62.1,14.7,69.2,29.4,65.9,39.4C62.5,49.5,48.6,54.9,35.9,56.4C23.2,58,11.6,55.7,-2.1,59.3C-15.7,62.9,-31.4,72.2,-42.1,69.5C-52.8,66.7,-58.4,51.8,-65.5,38.3C-72.7,24.7,-81.3,12.3,-84.8,-2C-88.3,-16.4,-86.8,-32.8,-78.7,-44.8C-70.6,-56.7,-56.1,-64.3,-41.8,-67C-27.6,-69.7,-13.8,-67.6,-1.2,-65.6C11.5,-63.6,23,-61.6,35.1,-57.7Z" transform="translate(100 100)" />
</svg>
